<svg width="50" height="50" viewBox="0 0 50 50" fill="none" xmlns="http://www.w3.org/2000/svg">
<g clip-path="url(#clip0)">
<path d="M50.0001 25.1532C50.0001 11.2594 38.8064 -0.00305176 25.0001 -0.00305176C11.1876 7.32422e-05 -0.00610352 11.2594 -0.00610352 25.1563C-0.00610352 37.7094 9.13765 48.1157 21.0876 50.0032V32.4251H14.7439V25.1563H21.0939V19.6094C21.0939 13.3063 24.8283 9.82507 30.5376 9.82507C33.2751 9.82507 36.1345 10.3157 36.1345 10.3157V16.5032H32.9814C29.8783 16.5032 28.9095 18.4438 28.9095 20.4344V25.1532H35.8408L34.7345 32.422H28.9064V50.0001C40.8564 48.1126 50.0001 37.7063 50.0001 25.1532Z" fill="white" fill-opacity="0.8"/>
</g>
<defs>
<clipPath id="clip0">
<rect width="50" height="50" fill="white"/>
</clipPath>
</defs>
</svg>
